G04*
G04 #@! TF.GenerationSoftware,Altium Limited,Altium Designer,19.1.7 (138)*
G04*
G04 Layer_Color=8421504*
%FSLAX25Y25*%
%MOIN*%
G70*
G01*
G75*
%ADD17R,0.03543X0.05118*%
%ADD18R,0.05118X0.03543*%
%ADD19R,0.13189X0.06496*%
%ADD20R,0.05906X0.05906*%
%ADD21O,0.06299X0.02362*%
%ADD22O,0.02362X0.05709*%
%ADD23R,0.05118X0.01772*%
D17*
X21949Y-72835D02*
D03*
X29232D02*
D03*
X494390D02*
D03*
X501673D02*
D03*
X228642D02*
D03*
X235925D02*
D03*
X317520D02*
D03*
X324803D02*
D03*
X406102D02*
D03*
X413386D02*
D03*
X140059D02*
D03*
X147343D02*
D03*
D18*
X82677Y-82382D02*
D03*
Y-75098D02*
D03*
X39370Y-84350D02*
D03*
Y-77067D02*
D03*
D19*
Y-108563D02*
D03*
Y-96161D02*
D03*
D20*
X221457Y-88583D02*
D03*
X207677D02*
D03*
D21*
X73819Y-85709D02*
D03*
Y-80709D02*
D03*
Y-75709D02*
D03*
X48228Y-85709D02*
D03*
Y-75709D02*
D03*
D22*
X136575Y-113091D02*
D03*
X141575D02*
D03*
X146575D02*
D03*
X151575D02*
D03*
X156575D02*
D03*
X161575D02*
D03*
X166575D02*
D03*
X136575Y-91634D02*
D03*
X141575D02*
D03*
X146575D02*
D03*
X151575D02*
D03*
X156575D02*
D03*
X161575D02*
D03*
X166575D02*
D03*
D23*
X24803Y-103051D02*
D03*
Y-100492D02*
D03*
Y-97933D02*
D03*
Y-95374D02*
D03*
Y-92815D02*
D03*
M02*
