G04*
G04 #@! TF.GenerationSoftware,Altium Limited,Altium Designer,19.1.7 (138)*
G04*
G04 Layer_Color=8388736*
%FSLAX25Y25*%
%MOIN*%
G70*
G01*
G75*
%ADD24R,0.04343X0.05918*%
%ADD25R,0.05918X0.04343*%
%ADD26R,0.13989X0.07296*%
%ADD27R,0.06706X0.06706*%
%ADD28O,0.07099X0.03162*%
%ADD29O,0.03162X0.06509*%
%ADD30R,0.05918X0.02572*%
%ADD31C,0.32296*%
%ADD32C,0.12611*%
%ADD33C,0.10642*%
%ADD34C,0.03950*%
%ADD35O,0.07887X0.05328*%
%ADD36O,0.08674X0.06312*%
%ADD37C,0.05800*%
D24*
X21949Y-72835D02*
D03*
X29232D02*
D03*
X494390D02*
D03*
X501673D02*
D03*
X228642D02*
D03*
X235925D02*
D03*
X317520D02*
D03*
X324803D02*
D03*
X406102D02*
D03*
X413386D02*
D03*
X140059D02*
D03*
X147343D02*
D03*
D25*
X82677Y-82382D02*
D03*
Y-75098D02*
D03*
X39370Y-84350D02*
D03*
Y-77067D02*
D03*
D26*
Y-108563D02*
D03*
Y-96161D02*
D03*
D27*
X221457Y-88583D02*
D03*
X207677D02*
D03*
D28*
X73819Y-85709D02*
D03*
Y-80709D02*
D03*
Y-75709D02*
D03*
X48228Y-85709D02*
D03*
Y-75709D02*
D03*
D29*
X136575Y-113091D02*
D03*
X141575D02*
D03*
X146575D02*
D03*
X151575D02*
D03*
X156575D02*
D03*
X161575D02*
D03*
X166575D02*
D03*
X136575Y-91634D02*
D03*
X141575D02*
D03*
X146575D02*
D03*
X151575D02*
D03*
X156575D02*
D03*
X161575D02*
D03*
X166575D02*
D03*
D30*
X24803Y-103051D02*
D03*
Y-100492D02*
D03*
Y-97933D02*
D03*
Y-95374D02*
D03*
Y-92815D02*
D03*
D31*
X499855Y-104751D02*
D03*
X295367Y-92576D02*
D03*
X95230Y-103051D02*
D03*
D32*
X462598Y-9843D02*
D03*
X501968D02*
D03*
X374016D02*
D03*
X413386D02*
D03*
X285433D02*
D03*
X324803D02*
D03*
X196850D02*
D03*
X236221D02*
D03*
X108268D02*
D03*
X147638D02*
D03*
X19685Y-9843D02*
D03*
X59055D02*
D03*
D33*
X452756Y-49213D02*
D03*
X462598Y-57874D02*
D03*
X482283Y-49213D02*
D03*
X501968Y-57874D02*
D03*
X511811Y-49213D02*
D03*
X364173D02*
D03*
X374016Y-57874D02*
D03*
X393701Y-49213D02*
D03*
X413386Y-57874D02*
D03*
X423228Y-49213D02*
D03*
X275590D02*
D03*
X285433Y-57874D02*
D03*
X305118Y-49213D02*
D03*
X324803Y-57874D02*
D03*
X334646Y-49213D02*
D03*
X187008D02*
D03*
X196850Y-57874D02*
D03*
X216535Y-49213D02*
D03*
X236221Y-57874D02*
D03*
X246063Y-49213D02*
D03*
X98425D02*
D03*
X108268Y-57874D02*
D03*
X127953Y-49213D02*
D03*
X147638Y-57874D02*
D03*
X157480Y-49213D02*
D03*
X9843Y-49213D02*
D03*
X19685Y-57874D02*
D03*
X39370Y-49213D02*
D03*
X59055Y-57874D02*
D03*
X68898Y-49213D02*
D03*
D34*
X20472Y-107776D02*
D03*
Y-88090D02*
D03*
D35*
X9843Y-82677D02*
D03*
Y-113189D02*
D03*
D36*
X24803Y-83268D02*
D03*
Y-112598D02*
D03*
D37*
X168308Y-106300D02*
D03*
X135827Y-98917D02*
D03*
X101654Y-29804D02*
D03*
X454811Y-29933D02*
D03*
X366142Y-29528D02*
D03*
X277729Y-29850D02*
D03*
X188945Y-29989D02*
D03*
X73819Y-70374D02*
D03*
X75295Y-91535D02*
D03*
X221506Y-96408D02*
D03*
X59330Y-109013D02*
D03*
X54105Y-108939D02*
D03*
X48817D02*
D03*
X183217Y-106501D02*
D03*
X198367Y-88463D02*
D03*
M02*
