G04*
G04 #@! TF.GenerationSoftware,Altium Limited,Altium Designer,19.1.7 (138)*
G04*
G04 Layer_Physical_Order=1*
G04 Layer_Color=255*
%FSLAX25Y25*%
%MOIN*%
G70*
G01*
G75*
%ADD17R,0.03543X0.05118*%
%ADD18R,0.05118X0.03543*%
%ADD19R,0.13189X0.06496*%
%ADD20R,0.05906X0.05906*%
%ADD21O,0.06299X0.02362*%
%ADD22O,0.02362X0.05709*%
%ADD23R,0.05118X0.01772*%
%ADD38C,0.03000*%
%ADD39C,0.01600*%
%ADD40C,0.31496*%
%ADD41C,0.11811*%
%ADD42C,0.09843*%
%ADD43C,0.03150*%
%ADD44O,0.07087X0.04528*%
%ADD45O,0.07874X0.05512*%
%ADD46C,0.05000*%
D17*
X21949Y-72835D02*
D03*
X29232D02*
D03*
X494390D02*
D03*
X501673D02*
D03*
X228642D02*
D03*
X235925D02*
D03*
X317520D02*
D03*
X324803D02*
D03*
X406102D02*
D03*
X413386D02*
D03*
X140059D02*
D03*
X147343D02*
D03*
D18*
X82677Y-82382D02*
D03*
Y-75098D02*
D03*
X39370Y-84350D02*
D03*
Y-77067D02*
D03*
D19*
Y-108563D02*
D03*
Y-96161D02*
D03*
D20*
X221457Y-88583D02*
D03*
X207677D02*
D03*
D21*
X73819Y-85709D02*
D03*
Y-80709D02*
D03*
Y-75709D02*
D03*
X48228Y-85709D02*
D03*
Y-75709D02*
D03*
D22*
X136575Y-113091D02*
D03*
X141575D02*
D03*
X146575D02*
D03*
X151575D02*
D03*
X156575D02*
D03*
X161575D02*
D03*
X166575D02*
D03*
X136575Y-91634D02*
D03*
X141575D02*
D03*
X146575D02*
D03*
X151575D02*
D03*
X156575D02*
D03*
X161575D02*
D03*
X166575D02*
D03*
D23*
X24803Y-103051D02*
D03*
Y-100492D02*
D03*
Y-97933D02*
D03*
Y-95374D02*
D03*
Y-92815D02*
D03*
D38*
X166894Y-107715D02*
X168308Y-106300D01*
X166894Y-112772D02*
Y-107715D01*
X165252Y-101299D02*
X172335D01*
X162145Y-96988D02*
X176472D01*
X161575Y-104976D02*
X165252Y-101299D01*
X172335D02*
X174092Y-103057D01*
Y-112544D02*
Y-103057D01*
X161575Y-96418D02*
X162145Y-96988D01*
X135827Y-98917D02*
Y-97884D01*
X188760Y-29804D02*
X188945Y-29989D01*
X101654Y-29804D02*
X188760D01*
X101654Y-30502D02*
Y-29804D01*
X73819Y-58337D02*
X101654Y-30502D01*
X49508Y-96161D02*
X73819Y-71850D01*
X366547Y-29933D02*
X454811D01*
X366142Y-29528D02*
X366547Y-29933D01*
X365820Y-29850D02*
X366142Y-29528D01*
X277729Y-29850D02*
X365820D01*
X277590Y-29989D02*
X277729Y-29850D01*
X188945Y-29989D02*
X277590D01*
X74287Y-75240D02*
X82535D01*
X73819Y-70374D02*
Y-58337D01*
Y-71850D02*
Y-70374D01*
X82535Y-75240D02*
X82677Y-75098D01*
X75295Y-91535D02*
Y-86902D01*
X221506Y-96408D02*
Y-88632D01*
X133244Y-113091D02*
X136575D01*
X102536Y-82382D02*
X133244Y-113091D01*
X82677Y-82382D02*
X102536D01*
X59292Y-108976D02*
X59330Y-109013D01*
X54105Y-108939D02*
X54142Y-108976D01*
X59292D01*
X48630Y-108751D02*
X48817Y-108939D01*
X39558Y-108751D02*
X48630D01*
X221457Y-88583D02*
X221506Y-88632D01*
X183217Y-106501D02*
Y-103733D01*
X176472Y-96988D02*
X183217Y-103733D01*
X153755Y-99038D02*
X153780Y-99063D01*
Y-106038D02*
Y-99063D01*
X166894Y-90280D02*
X167929D01*
X177108Y-81101D01*
X156894Y-85374D02*
X169434Y-72835D01*
X156894Y-91315D02*
Y-85374D01*
X151575Y-96859D02*
Y-91634D01*
Y-96859D02*
X153755Y-99038D01*
X161575Y-96418D02*
Y-91634D01*
X158955Y-99038D02*
X161575Y-96418D01*
X153755Y-99038D02*
X158955D01*
X169434Y-72835D02*
X228642D01*
X270392Y-81101D02*
X278659Y-72835D01*
X177108Y-81101D02*
X270392D01*
X166575Y-90598D02*
X166894Y-90280D01*
X166575Y-91634D02*
Y-90598D01*
X278659Y-72835D02*
X317520D01*
X156575Y-113091D02*
Y-108834D01*
X153780Y-106038D02*
X156575Y-108834D01*
X148717Y-106038D02*
X153780D01*
X146575Y-108181D02*
X148717Y-106038D01*
X146575Y-113091D02*
Y-108181D01*
X151730Y-117969D02*
X153487Y-119726D01*
X151730Y-117969D02*
Y-113245D01*
X141575Y-113091D02*
X146575D01*
X141575D02*
Y-91634D01*
X140059Y-80330D02*
X146256Y-86527D01*
Y-91315D02*
Y-86527D01*
Y-91315D02*
X146575Y-91634D01*
X140059Y-80330D02*
Y-72835D01*
X151575Y-113091D02*
X151730Y-113245D01*
X153487Y-119726D02*
X447498D01*
X493331Y-73894D01*
X494118D01*
X494390Y-73622D01*
Y-72835D01*
X365423Y-114301D02*
X406102Y-73622D01*
X175850Y-114301D02*
X365423D01*
X406102Y-73622D02*
Y-72835D01*
X174092Y-112544D02*
X175850Y-114301D01*
X161575Y-113091D02*
Y-104976D01*
X198367Y-88463D02*
X198427Y-88523D01*
X39370Y-96161D02*
X49508D01*
X74138Y-81028D02*
X80535D01*
X81890Y-82382D01*
X82677D01*
X501821Y-58022D02*
X501968Y-57874D01*
X501821Y-72687D02*
Y-58022D01*
X501673Y-72835D02*
X501821Y-72687D01*
X413386Y-72835D02*
Y-57874D01*
X324803Y-72835D02*
Y-57874D01*
X236073Y-58022D02*
X236221Y-57874D01*
X236073Y-72687D02*
Y-58022D01*
X235925Y-72835D02*
X236073Y-72687D01*
X198427Y-88523D02*
X207618D01*
X207677Y-88583D01*
X147490Y-58022D02*
X147638Y-57874D01*
X147490Y-72687D02*
Y-58022D01*
X147343Y-72835D02*
X147490Y-72687D01*
X119980Y-89151D02*
X134092D01*
X135221Y-90280D01*
X136256D01*
X136575Y-90598D01*
Y-91634D02*
Y-90598D01*
X105927Y-75098D02*
X119980Y-89151D01*
X82677Y-75098D02*
X105927D01*
X49559Y-85709D02*
X59055Y-76213D01*
Y-57874D01*
X48228Y-85709D02*
X49559D01*
X39370Y-108563D02*
X39558Y-108751D01*
X166575Y-113091D02*
X166894Y-112772D01*
X135827Y-97884D02*
X136256Y-97455D01*
Y-91953D01*
X136575Y-91634D01*
X46898Y-85709D02*
X48228D01*
X45811Y-84622D02*
X46898Y-85709D01*
X39642Y-84622D02*
X45811D01*
X39370Y-84350D02*
X39642Y-84622D01*
X41197Y-76028D02*
X47909D01*
X40157Y-77067D02*
X41197Y-76028D01*
X47909D02*
X48228Y-75709D01*
X39370Y-77067D02*
X40157D01*
X19685Y-69784D02*
Y-57874D01*
Y-69784D02*
X21949Y-72047D01*
Y-72835D02*
Y-72047D01*
X38583Y-77067D02*
X39370D01*
X35409Y-73894D02*
X38583Y-77067D01*
X29504Y-73894D02*
X35409D01*
X29232Y-73622D02*
X29504Y-73894D01*
X29232Y-73622D02*
Y-72835D01*
D39*
X37205Y-108563D02*
X39370D01*
X31693Y-103051D02*
X37205Y-108563D01*
X24803Y-103051D02*
X31693D01*
X33182Y-93713D02*
X36922D01*
X32283Y-92815D02*
X33182Y-93713D01*
X24803Y-92815D02*
X32283D01*
X36922Y-93713D02*
X39370Y-96161D01*
D40*
X499855Y-104751D02*
D03*
X295367Y-92576D02*
D03*
X95230Y-103051D02*
D03*
D41*
X462598Y-9843D02*
D03*
X501968D02*
D03*
X374016D02*
D03*
X413386D02*
D03*
X285433D02*
D03*
X324803D02*
D03*
X196850D02*
D03*
X236221D02*
D03*
X108268D02*
D03*
X147638D02*
D03*
X19685Y-9843D02*
D03*
X59055D02*
D03*
D42*
X452756Y-49213D02*
D03*
X462598Y-57874D02*
D03*
X482283Y-49213D02*
D03*
X501968Y-57874D02*
D03*
X511811Y-49213D02*
D03*
X364173D02*
D03*
X374016Y-57874D02*
D03*
X393701Y-49213D02*
D03*
X413386Y-57874D02*
D03*
X423228Y-49213D02*
D03*
X275590D02*
D03*
X285433Y-57874D02*
D03*
X305118Y-49213D02*
D03*
X324803Y-57874D02*
D03*
X334646Y-49213D02*
D03*
X187008D02*
D03*
X196850Y-57874D02*
D03*
X216535Y-49213D02*
D03*
X236221Y-57874D02*
D03*
X246063Y-49213D02*
D03*
X98425D02*
D03*
X108268Y-57874D02*
D03*
X127953Y-49213D02*
D03*
X147638Y-57874D02*
D03*
X157480Y-49213D02*
D03*
X9843Y-49213D02*
D03*
X19685Y-57874D02*
D03*
X39370Y-49213D02*
D03*
X59055Y-57874D02*
D03*
X68898Y-49213D02*
D03*
D43*
X20472Y-107776D02*
D03*
Y-88090D02*
D03*
D44*
X9843Y-82677D02*
D03*
Y-113189D02*
D03*
D45*
X24803Y-83268D02*
D03*
Y-112598D02*
D03*
D46*
X168308Y-106300D02*
D03*
X135827Y-98917D02*
D03*
X101654Y-29804D02*
D03*
X454811Y-29933D02*
D03*
X366142Y-29528D02*
D03*
X277729Y-29850D02*
D03*
X188945Y-29989D02*
D03*
X73819Y-70374D02*
D03*
X75295Y-91535D02*
D03*
X221506Y-96408D02*
D03*
X59330Y-109013D02*
D03*
X54105Y-108939D02*
D03*
X48817D02*
D03*
X183217Y-106501D02*
D03*
X198367Y-88463D02*
D03*
M02*
