G04*
G04 #@! TF.GenerationSoftware,Altium Limited,Altium Designer,19.1.7 (138)*
G04*
G04 Layer_Physical_Order=2*
G04 Layer_Color=16711680*
%FSLAX25Y25*%
%MOIN*%
G70*
G01*
G75*
%ADD17R,0.03543X0.05118*%
%ADD18R,0.05118X0.03543*%
%ADD38C,0.03000*%
%ADD40C,0.31496*%
%ADD41C,0.11811*%
%ADD42C,0.09843*%
%ADD43C,0.03150*%
%ADD44O,0.07087X0.04528*%
%ADD45O,0.07874X0.05512*%
%ADD46C,0.05000*%
%ADD47R,0.03937X0.05512*%
G36*
X521654Y-127953D02*
X0D01*
Y0D01*
X521654D01*
Y-127953D01*
D02*
G37*
%LPC*%
G36*
X501968Y-1535D02*
X500348Y-1694D01*
X498789Y-2167D01*
X497353Y-2935D01*
X496094Y-3968D01*
X495061Y-5227D01*
X494293Y-6663D01*
X493820Y-8222D01*
X493661Y-9843D01*
X493820Y-11463D01*
X494293Y-13022D01*
X495061Y-14458D01*
X496094Y-15717D01*
X497353Y-16750D01*
X498789Y-17518D01*
X500348Y-17991D01*
X501968Y-18150D01*
X503589Y-17991D01*
X505148Y-17518D01*
X506584Y-16750D01*
X507843Y-15717D01*
X508876Y-14458D01*
X509644Y-13022D01*
X510117Y-11463D01*
X510276Y-9843D01*
X510117Y-8222D01*
X509644Y-6663D01*
X508876Y-5227D01*
X507843Y-3968D01*
X506584Y-2935D01*
X505148Y-2167D01*
X503589Y-1694D01*
X501968Y-1535D01*
D02*
G37*
G36*
X462598D02*
X460978Y-1694D01*
X459419Y-2167D01*
X457983Y-2935D01*
X456724Y-3968D01*
X455691Y-5227D01*
X454923Y-6663D01*
X454450Y-8222D01*
X454291Y-9843D01*
X454450Y-11463D01*
X454923Y-13022D01*
X455691Y-14458D01*
X456724Y-15717D01*
X457983Y-16750D01*
X459419Y-17518D01*
X460978Y-17991D01*
X462598Y-18150D01*
X464219Y-17991D01*
X465778Y-17518D01*
X467214Y-16750D01*
X468473Y-15717D01*
X469506Y-14458D01*
X470274Y-13022D01*
X470747Y-11463D01*
X470906Y-9843D01*
X470747Y-8222D01*
X470274Y-6663D01*
X469506Y-5227D01*
X468473Y-3968D01*
X467214Y-2935D01*
X465778Y-2167D01*
X464219Y-1694D01*
X462598Y-1535D01*
D02*
G37*
G36*
X413386D02*
X411765Y-1694D01*
X410207Y-2167D01*
X408770Y-2935D01*
X407511Y-3968D01*
X406478Y-5227D01*
X405711Y-6663D01*
X405238Y-8222D01*
X405078Y-9843D01*
X405238Y-11463D01*
X405711Y-13022D01*
X406478Y-14458D01*
X407511Y-15717D01*
X408770Y-16750D01*
X410207Y-17518D01*
X411765Y-17991D01*
X413386Y-18150D01*
X415007Y-17991D01*
X416565Y-17518D01*
X418001Y-16750D01*
X419260Y-15717D01*
X420293Y-14458D01*
X421061Y-13022D01*
X421534Y-11463D01*
X421694Y-9843D01*
X421534Y-8222D01*
X421061Y-6663D01*
X420293Y-5227D01*
X419260Y-3968D01*
X418001Y-2935D01*
X416565Y-2167D01*
X415007Y-1694D01*
X413386Y-1535D01*
D02*
G37*
G36*
X374016D02*
X372395Y-1694D01*
X370836Y-2167D01*
X369400Y-2935D01*
X368141Y-3968D01*
X367108Y-5227D01*
X366340Y-6663D01*
X365868Y-8222D01*
X365708Y-9843D01*
X365868Y-11463D01*
X366340Y-13022D01*
X367108Y-14458D01*
X368141Y-15717D01*
X369400Y-16750D01*
X370836Y-17518D01*
X372395Y-17991D01*
X374016Y-18150D01*
X375637Y-17991D01*
X377195Y-17518D01*
X378631Y-16750D01*
X379890Y-15717D01*
X380923Y-14458D01*
X381691Y-13022D01*
X382164Y-11463D01*
X382324Y-9843D01*
X382164Y-8222D01*
X381691Y-6663D01*
X380923Y-5227D01*
X379890Y-3968D01*
X378631Y-2935D01*
X377195Y-2167D01*
X375637Y-1694D01*
X374016Y-1535D01*
D02*
G37*
G36*
X324803D02*
X323182Y-1694D01*
X321624Y-2167D01*
X320188Y-2935D01*
X318929Y-3968D01*
X317896Y-5227D01*
X317128Y-6663D01*
X316655Y-8222D01*
X316495Y-9843D01*
X316655Y-11463D01*
X317128Y-13022D01*
X317896Y-14458D01*
X318929Y-15717D01*
X320188Y-16750D01*
X321624Y-17518D01*
X323182Y-17991D01*
X324803Y-18150D01*
X326424Y-17991D01*
X327982Y-17518D01*
X329419Y-16750D01*
X330678Y-15717D01*
X331711Y-14458D01*
X332478Y-13022D01*
X332951Y-11463D01*
X333111Y-9843D01*
X332951Y-8222D01*
X332478Y-6663D01*
X331711Y-5227D01*
X330678Y-3968D01*
X329419Y-2935D01*
X327982Y-2167D01*
X326424Y-1694D01*
X324803Y-1535D01*
D02*
G37*
G36*
X285433D02*
X283812Y-1694D01*
X282254Y-2167D01*
X280818Y-2935D01*
X279559Y-3968D01*
X278525Y-5227D01*
X277758Y-6663D01*
X277285Y-8222D01*
X277125Y-9843D01*
X277285Y-11463D01*
X277758Y-13022D01*
X278525Y-14458D01*
X279559Y-15717D01*
X280818Y-16750D01*
X282254Y-17518D01*
X283812Y-17991D01*
X285433Y-18150D01*
X287054Y-17991D01*
X288612Y-17518D01*
X290049Y-16750D01*
X291307Y-15717D01*
X292341Y-14458D01*
X293108Y-13022D01*
X293581Y-11463D01*
X293741Y-9843D01*
X293581Y-8222D01*
X293108Y-6663D01*
X292341Y-5227D01*
X291307Y-3968D01*
X290049Y-2935D01*
X288612Y-2167D01*
X287054Y-1694D01*
X285433Y-1535D01*
D02*
G37*
G36*
X236221D02*
X234600Y-1694D01*
X233041Y-2167D01*
X231605Y-2935D01*
X230346Y-3968D01*
X229313Y-5227D01*
X228545Y-6663D01*
X228072Y-8222D01*
X227913Y-9843D01*
X228072Y-11463D01*
X228545Y-13022D01*
X229313Y-14458D01*
X230346Y-15717D01*
X231605Y-16750D01*
X233041Y-17518D01*
X234600Y-17991D01*
X236221Y-18150D01*
X237841Y-17991D01*
X239400Y-17518D01*
X240836Y-16750D01*
X242095Y-15717D01*
X243128Y-14458D01*
X243896Y-13022D01*
X244369Y-11463D01*
X244528Y-9843D01*
X244369Y-8222D01*
X243896Y-6663D01*
X243128Y-5227D01*
X242095Y-3968D01*
X240836Y-2935D01*
X239400Y-2167D01*
X237841Y-1694D01*
X236221Y-1535D01*
D02*
G37*
G36*
X196850D02*
X195230Y-1694D01*
X193671Y-2167D01*
X192235Y-2935D01*
X190976Y-3968D01*
X189943Y-5227D01*
X189175Y-6663D01*
X188702Y-8222D01*
X188543Y-9843D01*
X188702Y-11463D01*
X189175Y-13022D01*
X189943Y-14458D01*
X190976Y-15717D01*
X192235Y-16750D01*
X193671Y-17518D01*
X195230Y-17991D01*
X196850Y-18150D01*
X198471Y-17991D01*
X200030Y-17518D01*
X201466Y-16750D01*
X202725Y-15717D01*
X203758Y-14458D01*
X204526Y-13022D01*
X204998Y-11463D01*
X205158Y-9843D01*
X204998Y-8222D01*
X204526Y-6663D01*
X203758Y-5227D01*
X202725Y-3968D01*
X201466Y-2935D01*
X200030Y-2167D01*
X198471Y-1694D01*
X196850Y-1535D01*
D02*
G37*
G36*
X147638D02*
X146017Y-1694D01*
X144459Y-2167D01*
X143022Y-2935D01*
X141763Y-3968D01*
X140730Y-5227D01*
X139962Y-6663D01*
X139490Y-8222D01*
X139330Y-9843D01*
X139490Y-11463D01*
X139962Y-13022D01*
X140730Y-14458D01*
X141763Y-15717D01*
X143022Y-16750D01*
X144459Y-17518D01*
X146017Y-17991D01*
X147638Y-18150D01*
X149258Y-17991D01*
X150817Y-17518D01*
X152253Y-16750D01*
X153512Y-15717D01*
X154545Y-14458D01*
X155313Y-13022D01*
X155786Y-11463D01*
X155946Y-9843D01*
X155786Y-8222D01*
X155313Y-6663D01*
X154545Y-5227D01*
X153512Y-3968D01*
X152253Y-2935D01*
X150817Y-2167D01*
X149258Y-1694D01*
X147638Y-1535D01*
D02*
G37*
G36*
X108268D02*
X106647Y-1694D01*
X105088Y-2167D01*
X103652Y-2935D01*
X102393Y-3968D01*
X101360Y-5227D01*
X100592Y-6663D01*
X100120Y-8222D01*
X99960Y-9843D01*
X100120Y-11463D01*
X100592Y-13022D01*
X101360Y-14458D01*
X102393Y-15717D01*
X103652Y-16750D01*
X105088Y-17518D01*
X106647Y-17991D01*
X108268Y-18150D01*
X109889Y-17991D01*
X111447Y-17518D01*
X112883Y-16750D01*
X114142Y-15717D01*
X115175Y-14458D01*
X115943Y-13022D01*
X116416Y-11463D01*
X116575Y-9843D01*
X116416Y-8222D01*
X115943Y-6663D01*
X115175Y-5227D01*
X114142Y-3968D01*
X112883Y-2935D01*
X111447Y-2167D01*
X109889Y-1694D01*
X108268Y-1535D01*
D02*
G37*
G36*
X59055Y-1535D02*
X57434Y-1694D01*
X55876Y-2167D01*
X54440Y-2935D01*
X53181Y-3968D01*
X52148Y-5227D01*
X51380Y-6663D01*
X50907Y-8222D01*
X50747Y-9843D01*
X50907Y-11463D01*
X51380Y-13022D01*
X52148Y-14458D01*
X53181Y-15717D01*
X54440Y-16750D01*
X55876Y-17518D01*
X57434Y-17991D01*
X59055Y-18150D01*
X60676Y-17991D01*
X62234Y-17518D01*
X63671Y-16750D01*
X64929Y-15717D01*
X65963Y-14458D01*
X66730Y-13022D01*
X67203Y-11463D01*
X67363Y-9843D01*
X67203Y-8222D01*
X66730Y-6663D01*
X65963Y-5227D01*
X64929Y-3968D01*
X63671Y-2935D01*
X62234Y-2167D01*
X60676Y-1694D01*
X59055Y-1535D01*
D02*
G37*
G36*
X19685D02*
X18064Y-1694D01*
X16506Y-2167D01*
X15069Y-2935D01*
X13811Y-3968D01*
X12777Y-5227D01*
X12010Y-6663D01*
X11537Y-8222D01*
X11377Y-9843D01*
X11537Y-11463D01*
X12010Y-13022D01*
X12777Y-14458D01*
X13811Y-15717D01*
X15069Y-16750D01*
X16506Y-17518D01*
X18064Y-17991D01*
X19685Y-18150D01*
X21306Y-17991D01*
X22864Y-17518D01*
X24301Y-16750D01*
X25559Y-15717D01*
X26593Y-14458D01*
X27360Y-13022D01*
X27833Y-11463D01*
X27993Y-9843D01*
X27833Y-8222D01*
X27360Y-6663D01*
X26593Y-5227D01*
X25559Y-3968D01*
X24301Y-2935D01*
X22864Y-2167D01*
X21306Y-1694D01*
X19685Y-1535D01*
D02*
G37*
G36*
X454811Y-25029D02*
X453542Y-25196D01*
X452359Y-25686D01*
X451343Y-26465D01*
X450564Y-27481D01*
X450074Y-28664D01*
X449907Y-29933D01*
X450074Y-31202D01*
X450564Y-32385D01*
X451343Y-33401D01*
X452359Y-34180D01*
X453542Y-34670D01*
X454811Y-34837D01*
X456080Y-34670D01*
X457177Y-34216D01*
X457219Y-34219D01*
X457446Y-34318D01*
X457677Y-34493D01*
Y-41535D01*
X458703D01*
Y-44236D01*
X458232Y-44404D01*
X457931Y-44038D01*
X456822Y-43127D01*
X455557Y-42451D01*
X454184Y-42035D01*
X452756Y-41894D01*
X451328Y-42035D01*
X449955Y-42451D01*
X448690Y-43127D01*
X447581Y-44038D01*
X446671Y-45147D01*
X445994Y-46412D01*
X445578Y-47785D01*
X445437Y-49213D01*
X445578Y-50640D01*
X445994Y-52013D01*
X446671Y-53279D01*
X447581Y-54388D01*
X448690Y-55298D01*
X449955Y-55974D01*
X451328Y-56391D01*
X452756Y-56531D01*
X454184Y-56391D01*
X454989Y-56147D01*
X455222Y-56308D01*
X455411Y-56541D01*
X455280Y-57874D01*
X455420Y-59302D01*
X455837Y-60675D01*
X456513Y-61940D01*
X457423Y-63049D01*
X458532Y-63959D01*
X459798Y-64636D01*
X461171Y-65052D01*
X462598Y-65193D01*
X464026Y-65052D01*
X465399Y-64636D01*
X466665Y-63959D01*
X467773Y-63049D01*
X468684Y-61940D01*
X469360Y-60675D01*
X469776Y-59302D01*
X469917Y-57874D01*
X469776Y-56446D01*
X469360Y-55073D01*
X468684Y-53808D01*
X467773Y-52699D01*
X466665Y-51789D01*
X466494Y-51698D01*
Y-41535D01*
X467520D01*
Y-34252D01*
Y-25984D01*
X462580D01*
X462327Y-25951D01*
X462327Y-25951D01*
X457608D01*
X457263Y-25686D01*
X456080Y-25196D01*
X454811Y-25029D01*
D02*
G37*
G36*
X366142Y-24623D02*
X364872Y-24791D01*
X363690Y-25280D01*
X362674Y-26060D01*
X361895Y-27075D01*
X361405Y-28258D01*
X361238Y-29528D01*
X361405Y-30797D01*
X361895Y-31980D01*
X362674Y-32995D01*
X363690Y-33775D01*
X364872Y-34265D01*
X366142Y-34432D01*
X367411Y-34265D01*
X368594Y-33775D01*
X368595Y-33774D01*
X368963Y-33909D01*
X369094Y-34021D01*
Y-41240D01*
X370120D01*
Y-44236D01*
X369649Y-44404D01*
X369348Y-44038D01*
X368239Y-43127D01*
X366974Y-42451D01*
X365601Y-42035D01*
X364173Y-41894D01*
X362745Y-42035D01*
X361372Y-42451D01*
X360107Y-43127D01*
X358998Y-44038D01*
X358088Y-45147D01*
X357412Y-46412D01*
X356995Y-47785D01*
X356855Y-49213D01*
X356995Y-50640D01*
X357412Y-52013D01*
X358088Y-53279D01*
X358998Y-54388D01*
X360107Y-55298D01*
X361372Y-55974D01*
X362745Y-56391D01*
X364173Y-56531D01*
X365601Y-56391D01*
X366406Y-56147D01*
X366639Y-56308D01*
X366828Y-56541D01*
X366697Y-57874D01*
X366838Y-59302D01*
X367254Y-60675D01*
X367931Y-61940D01*
X368841Y-63049D01*
X369950Y-63959D01*
X371215Y-64636D01*
X372588Y-65052D01*
X374016Y-65193D01*
X375444Y-65052D01*
X376817Y-64636D01*
X378082Y-63959D01*
X379191Y-63049D01*
X380101Y-61940D01*
X380777Y-60675D01*
X381194Y-59302D01*
X381334Y-57874D01*
X381194Y-56446D01*
X380777Y-55073D01*
X380101Y-53808D01*
X379191Y-52699D01*
X378082Y-51789D01*
X377911Y-51698D01*
Y-41240D01*
X378937D01*
Y-33957D01*
Y-25689D01*
X374153D01*
X373721Y-25632D01*
X373720Y-25632D01*
X369052D01*
X368594Y-25280D01*
X367411Y-24791D01*
X366142Y-24623D01*
D02*
G37*
G36*
X277729Y-24946D02*
X276460Y-25113D01*
X275277Y-25603D01*
X274261Y-26382D01*
X273482Y-27398D01*
X272992Y-28580D01*
X272825Y-29850D01*
X272992Y-31119D01*
X273482Y-32302D01*
X274261Y-33318D01*
X275277Y-34097D01*
X276460Y-34587D01*
X277729Y-34754D01*
X278998Y-34587D01*
X280012Y-34167D01*
X280427Y-34376D01*
X280512Y-34473D01*
Y-41240D01*
X281538D01*
Y-44236D01*
X281067Y-44404D01*
X280766Y-44038D01*
X279657Y-43127D01*
X278391Y-42451D01*
X277018Y-42035D01*
X275590Y-41894D01*
X274163Y-42035D01*
X272790Y-42451D01*
X271525Y-43127D01*
X270415Y-44038D01*
X269505Y-45147D01*
X268829Y-46412D01*
X268412Y-47785D01*
X268272Y-49213D01*
X268412Y-50640D01*
X268829Y-52013D01*
X269505Y-53279D01*
X270415Y-54388D01*
X271525Y-55298D01*
X272790Y-55974D01*
X274163Y-56391D01*
X275590Y-56531D01*
X277018Y-56391D01*
X277823Y-56147D01*
X278056Y-56308D01*
X278246Y-56541D01*
X278114Y-57874D01*
X278255Y-59302D01*
X278672Y-60675D01*
X279348Y-61940D01*
X280258Y-63049D01*
X281367Y-63959D01*
X282632Y-64636D01*
X284005Y-65052D01*
X285433Y-65193D01*
X286861Y-65052D01*
X288234Y-64636D01*
X289499Y-63959D01*
X290608Y-63049D01*
X291518Y-61940D01*
X292195Y-60675D01*
X292611Y-59302D01*
X292752Y-57874D01*
X292611Y-56446D01*
X292195Y-55073D01*
X291518Y-53808D01*
X290608Y-52699D01*
X289499Y-51789D01*
X289329Y-51698D01*
Y-41240D01*
X290354D01*
Y-33957D01*
Y-25689D01*
X280512D01*
X280512Y-25689D01*
X280067Y-25556D01*
X278998Y-25113D01*
X277729Y-24946D01*
D02*
G37*
G36*
X188945Y-25084D02*
X187676Y-25251D01*
X186493Y-25741D01*
X185477Y-26521D01*
X184698Y-27536D01*
X184208Y-28719D01*
X184041Y-29989D01*
X184208Y-31258D01*
X184698Y-32441D01*
X185477Y-33456D01*
X186493Y-34236D01*
X187676Y-34725D01*
X188945Y-34893D01*
X190214Y-34725D01*
X191397Y-34236D01*
X191429Y-34211D01*
X191929Y-34458D01*
Y-41240D01*
X192955D01*
Y-44236D01*
X192484Y-44404D01*
X192183Y-44038D01*
X191074Y-43127D01*
X189809Y-42451D01*
X188436Y-42035D01*
X187008Y-41894D01*
X185580Y-42035D01*
X184207Y-42451D01*
X182942Y-43127D01*
X181833Y-44038D01*
X180923Y-45147D01*
X180246Y-46412D01*
X179830Y-47785D01*
X179689Y-49213D01*
X179830Y-50640D01*
X180246Y-52013D01*
X180923Y-53279D01*
X181833Y-54388D01*
X182942Y-55298D01*
X184207Y-55974D01*
X185580Y-56391D01*
X187008Y-56531D01*
X188436Y-56391D01*
X189241Y-56147D01*
X189474Y-56308D01*
X189663Y-56541D01*
X189532Y-57874D01*
X189672Y-59302D01*
X190089Y-60675D01*
X190765Y-61940D01*
X191675Y-63049D01*
X192784Y-63959D01*
X194050Y-64636D01*
X195423Y-65052D01*
X196850Y-65193D01*
X198278Y-65052D01*
X199651Y-64636D01*
X200916Y-63959D01*
X202026Y-63049D01*
X202936Y-61940D01*
X203612Y-60675D01*
X204029Y-59302D01*
X204169Y-57874D01*
X204029Y-56446D01*
X203612Y-55073D01*
X202936Y-53808D01*
X202026Y-52699D01*
X200916Y-51789D01*
X200746Y-51698D01*
Y-41240D01*
X201772D01*
Y-33957D01*
Y-25689D01*
X191929D01*
Y-25689D01*
X191429Y-25766D01*
X191397Y-25741D01*
X190214Y-25251D01*
X188945Y-25084D01*
D02*
G37*
G36*
X101654Y-24900D02*
X100385Y-25067D01*
X99202Y-25557D01*
X98186Y-26336D01*
X97407Y-27352D01*
X96917Y-28534D01*
X96750Y-29804D01*
X96917Y-31073D01*
X97407Y-32256D01*
X98186Y-33272D01*
X99202Y-34051D01*
X100385Y-34541D01*
X101654Y-34708D01*
X102847Y-34551D01*
X103098Y-34649D01*
X103347Y-34815D01*
Y-41240D01*
X104372D01*
Y-44236D01*
X103901Y-44404D01*
X103600Y-44038D01*
X102491Y-43127D01*
X101226Y-42451D01*
X99853Y-42035D01*
X98425Y-41894D01*
X96997Y-42035D01*
X95624Y-42451D01*
X94359Y-43127D01*
X93250Y-44038D01*
X92340Y-45147D01*
X91664Y-46412D01*
X91247Y-47785D01*
X91106Y-49213D01*
X91247Y-50640D01*
X91664Y-52013D01*
X92340Y-53279D01*
X93250Y-54388D01*
X94359Y-55298D01*
X95624Y-55974D01*
X96997Y-56391D01*
X98425Y-56531D01*
X99853Y-56391D01*
X100658Y-56147D01*
X100891Y-56308D01*
X101080Y-56541D01*
X100949Y-57874D01*
X101090Y-59302D01*
X101506Y-60675D01*
X102182Y-61940D01*
X103093Y-63049D01*
X104202Y-63959D01*
X105467Y-64636D01*
X106840Y-65052D01*
X108268Y-65193D01*
X109695Y-65052D01*
X111068Y-64636D01*
X112334Y-63959D01*
X113443Y-63049D01*
X114353Y-61940D01*
X115029Y-60675D01*
X115446Y-59302D01*
X115586Y-57874D01*
X115446Y-56446D01*
X115029Y-55073D01*
X114353Y-53808D01*
X113443Y-52699D01*
X112334Y-51789D01*
X112163Y-51698D01*
Y-41240D01*
X113189D01*
Y-33957D01*
Y-25689D01*
X104279D01*
X104106Y-25557D01*
X102923Y-25067D01*
X101654Y-24900D01*
D02*
G37*
G36*
X394201Y-43312D02*
Y-48713D01*
X399601D01*
X399536Y-48052D01*
X399198Y-46936D01*
X398648Y-45907D01*
X397908Y-45005D01*
X397006Y-44265D01*
X395978Y-43716D01*
X394862Y-43377D01*
X394201Y-43312D01*
D02*
G37*
G36*
X305618D02*
Y-48713D01*
X311019D01*
X310954Y-48052D01*
X310615Y-46936D01*
X310065Y-45907D01*
X309325Y-45005D01*
X308424Y-44265D01*
X307395Y-43716D01*
X306279Y-43377D01*
X305618Y-43312D01*
D02*
G37*
G36*
X128453D02*
Y-48713D01*
X133853D01*
X133788Y-48052D01*
X133450Y-46936D01*
X132900Y-45907D01*
X132160Y-45005D01*
X131258Y-44265D01*
X130230Y-43716D01*
X129113Y-43377D01*
X128453Y-43312D01*
D02*
G37*
G36*
X217035D02*
Y-48713D01*
X222436D01*
X222371Y-48052D01*
X222032Y-46936D01*
X221483Y-45907D01*
X220743Y-45005D01*
X219841Y-44265D01*
X218812Y-43716D01*
X217696Y-43377D01*
X217035Y-43312D01*
D02*
G37*
G36*
X482783Y-43312D02*
Y-48713D01*
X488184D01*
X488119Y-48052D01*
X487781Y-46936D01*
X487231Y-45907D01*
X486491Y-45005D01*
X485589Y-44265D01*
X484560Y-43716D01*
X483444Y-43377D01*
X482783Y-43312D01*
D02*
G37*
G36*
X481783Y-43312D02*
X481123Y-43377D01*
X480007Y-43716D01*
X478978Y-44265D01*
X478076Y-45005D01*
X477336Y-45907D01*
X476787Y-46936D01*
X476448Y-48052D01*
X476383Y-48713D01*
X481783D01*
Y-43312D01*
D02*
G37*
G36*
X127453D02*
X126792Y-43377D01*
X125676Y-43716D01*
X124647Y-44265D01*
X123746Y-45005D01*
X123006Y-45907D01*
X122456Y-46936D01*
X122117Y-48052D01*
X122052Y-48713D01*
X127453D01*
Y-43312D01*
D02*
G37*
G36*
X304618D02*
X303957Y-43377D01*
X302841Y-43716D01*
X301813Y-44265D01*
X300911Y-45005D01*
X300171Y-45907D01*
X299621Y-46936D01*
X299283Y-48052D01*
X299218Y-48713D01*
X304618D01*
Y-43312D01*
D02*
G37*
G36*
X216035D02*
X215375Y-43377D01*
X214259Y-43716D01*
X213230Y-44265D01*
X212328Y-45005D01*
X211588Y-45907D01*
X211038Y-46936D01*
X210700Y-48052D01*
X210635Y-48713D01*
X216035D01*
Y-43312D01*
D02*
G37*
G36*
X393201Y-43312D02*
X392540Y-43377D01*
X391424Y-43716D01*
X390395Y-44265D01*
X389494Y-45005D01*
X388754Y-45907D01*
X388204Y-46936D01*
X387865Y-48052D01*
X387800Y-48713D01*
X393201D01*
Y-43312D01*
D02*
G37*
G36*
X39870Y-43312D02*
Y-48713D01*
X45271D01*
X45206Y-48052D01*
X44867Y-46936D01*
X44317Y-45907D01*
X43577Y-45005D01*
X42676Y-44265D01*
X41647Y-43716D01*
X40531Y-43377D01*
X39870Y-43312D01*
D02*
G37*
G36*
X38870D02*
X38209Y-43377D01*
X37093Y-43716D01*
X36064Y-44265D01*
X35163Y-45005D01*
X34423Y-45907D01*
X33873Y-46936D01*
X33535Y-48052D01*
X33469Y-48713D01*
X38870D01*
Y-43312D01*
D02*
G37*
G36*
X511811Y-41894D02*
X510383Y-42035D01*
X509010Y-42451D01*
X507745Y-43127D01*
X506636Y-44038D01*
X505726Y-45147D01*
X505049Y-46412D01*
X504633Y-47785D01*
X504492Y-49213D01*
X504624Y-50546D01*
X504434Y-50778D01*
X504201Y-50940D01*
X503396Y-50696D01*
X501968Y-50555D01*
X500541Y-50696D01*
X499168Y-51112D01*
X497902Y-51789D01*
X496793Y-52699D01*
X495883Y-53808D01*
X495207Y-55073D01*
X494790Y-56446D01*
X494650Y-57874D01*
X494790Y-59302D01*
X495207Y-60675D01*
X495883Y-61940D01*
X496793Y-63049D01*
X497902Y-63959D01*
X499168Y-64636D01*
X500541Y-65052D01*
X501968Y-65193D01*
X503396Y-65052D01*
X504769Y-64636D01*
X506035Y-63959D01*
X507144Y-63049D01*
X508054Y-61940D01*
X508730Y-60675D01*
X509147Y-59302D01*
X509287Y-57874D01*
X509156Y-56541D01*
X509345Y-56308D01*
X509578Y-56147D01*
X510383Y-56391D01*
X511811Y-56531D01*
X513239Y-56391D01*
X514612Y-55974D01*
X515877Y-55298D01*
X516986Y-54388D01*
X517896Y-53279D01*
X518573Y-52013D01*
X518989Y-50640D01*
X519130Y-49213D01*
X518989Y-47785D01*
X518573Y-46412D01*
X517896Y-45147D01*
X516986Y-44038D01*
X515877Y-43127D01*
X514612Y-42451D01*
X513239Y-42035D01*
X511811Y-41894D01*
D02*
G37*
G36*
X423228D02*
X421801Y-42035D01*
X420428Y-42451D01*
X419162Y-43127D01*
X418053Y-44038D01*
X417143Y-45147D01*
X416467Y-46412D01*
X416050Y-47785D01*
X415910Y-49213D01*
X416041Y-50546D01*
X415851Y-50778D01*
X415619Y-50940D01*
X414814Y-50696D01*
X413386Y-50555D01*
X411958Y-50696D01*
X410585Y-51112D01*
X409320Y-51789D01*
X408211Y-52699D01*
X407301Y-53808D01*
X406624Y-55073D01*
X406208Y-56446D01*
X406067Y-57874D01*
X406208Y-59302D01*
X406624Y-60675D01*
X407301Y-61940D01*
X408211Y-63049D01*
X409320Y-63959D01*
X410585Y-64636D01*
X411958Y-65052D01*
X413386Y-65193D01*
X414814Y-65052D01*
X416187Y-64636D01*
X417452Y-63959D01*
X418561Y-63049D01*
X419471Y-61940D01*
X420147Y-60675D01*
X420564Y-59302D01*
X420705Y-57874D01*
X420573Y-56541D01*
X420763Y-56308D01*
X420996Y-56147D01*
X421801Y-56391D01*
X423228Y-56531D01*
X424656Y-56391D01*
X426029Y-55974D01*
X427294Y-55298D01*
X428403Y-54388D01*
X429314Y-53279D01*
X429990Y-52013D01*
X430406Y-50640D01*
X430547Y-49213D01*
X430406Y-47785D01*
X429990Y-46412D01*
X429314Y-45147D01*
X428403Y-44038D01*
X427294Y-43127D01*
X426029Y-42451D01*
X424656Y-42035D01*
X423228Y-41894D01*
D02*
G37*
G36*
X334646D02*
X333218Y-42035D01*
X331845Y-42451D01*
X330580Y-43127D01*
X329471Y-44038D01*
X328560Y-45147D01*
X327884Y-46412D01*
X327468Y-47785D01*
X327327Y-49213D01*
X327458Y-50546D01*
X327269Y-50778D01*
X327036Y-50940D01*
X326231Y-50696D01*
X324803Y-50555D01*
X323375Y-50696D01*
X322002Y-51112D01*
X320737Y-51789D01*
X319628Y-52699D01*
X318718Y-53808D01*
X318042Y-55073D01*
X317625Y-56446D01*
X317484Y-57874D01*
X317625Y-59302D01*
X318042Y-60675D01*
X318718Y-61940D01*
X319628Y-63049D01*
X320737Y-63959D01*
X322002Y-64636D01*
X323375Y-65052D01*
X324803Y-65193D01*
X326231Y-65052D01*
X327604Y-64636D01*
X328869Y-63959D01*
X329978Y-63049D01*
X330888Y-61940D01*
X331565Y-60675D01*
X331981Y-59302D01*
X332122Y-57874D01*
X331991Y-56541D01*
X332180Y-56308D01*
X332413Y-56147D01*
X333218Y-56391D01*
X334646Y-56531D01*
X336073Y-56391D01*
X337446Y-55974D01*
X338712Y-55298D01*
X339821Y-54388D01*
X340731Y-53279D01*
X341407Y-52013D01*
X341824Y-50640D01*
X341964Y-49213D01*
X341824Y-47785D01*
X341407Y-46412D01*
X340731Y-45147D01*
X339821Y-44038D01*
X338712Y-43127D01*
X337446Y-42451D01*
X336073Y-42035D01*
X334646Y-41894D01*
D02*
G37*
G36*
X246063D02*
X244635Y-42035D01*
X243262Y-42451D01*
X241997Y-43127D01*
X240888Y-44038D01*
X239978Y-45147D01*
X239301Y-46412D01*
X238885Y-47785D01*
X238744Y-49213D01*
X238876Y-50546D01*
X238686Y-50778D01*
X238453Y-50940D01*
X237648Y-50696D01*
X236221Y-50555D01*
X234793Y-50696D01*
X233420Y-51112D01*
X232154Y-51789D01*
X231045Y-52699D01*
X230135Y-53808D01*
X229459Y-55073D01*
X229042Y-56446D01*
X228902Y-57874D01*
X229042Y-59302D01*
X229459Y-60675D01*
X230135Y-61940D01*
X231045Y-63049D01*
X232154Y-63959D01*
X233420Y-64636D01*
X234793Y-65052D01*
X236221Y-65193D01*
X237648Y-65052D01*
X239021Y-64636D01*
X240286Y-63959D01*
X241396Y-63049D01*
X242306Y-61940D01*
X242982Y-60675D01*
X243398Y-59302D01*
X243539Y-57874D01*
X243408Y-56541D01*
X243597Y-56308D01*
X243830Y-56147D01*
X244635Y-56391D01*
X246063Y-56531D01*
X247491Y-56391D01*
X248864Y-55974D01*
X250129Y-55298D01*
X251238Y-54388D01*
X252148Y-53279D01*
X252825Y-52013D01*
X253241Y-50640D01*
X253382Y-49213D01*
X253241Y-47785D01*
X252825Y-46412D01*
X252148Y-45147D01*
X251238Y-44038D01*
X250129Y-43127D01*
X248864Y-42451D01*
X247491Y-42035D01*
X246063Y-41894D01*
D02*
G37*
G36*
X157480D02*
X156052Y-42035D01*
X154680Y-42451D01*
X153414Y-43127D01*
X152305Y-44038D01*
X151395Y-45147D01*
X150719Y-46412D01*
X150302Y-47785D01*
X150162Y-49213D01*
X150293Y-50546D01*
X150103Y-50778D01*
X149871Y-50940D01*
X149066Y-50696D01*
X147638Y-50555D01*
X146210Y-50696D01*
X144837Y-51112D01*
X143572Y-51789D01*
X142463Y-52699D01*
X141552Y-53808D01*
X140876Y-55073D01*
X140460Y-56446D01*
X140319Y-57874D01*
X140460Y-59302D01*
X140876Y-60675D01*
X141552Y-61940D01*
X142463Y-63049D01*
X143572Y-63959D01*
X144837Y-64636D01*
X146210Y-65052D01*
X147638Y-65193D01*
X149066Y-65052D01*
X150438Y-64636D01*
X151704Y-63959D01*
X152813Y-63049D01*
X153723Y-61940D01*
X154399Y-60675D01*
X154816Y-59302D01*
X154956Y-57874D01*
X154825Y-56541D01*
X155015Y-56308D01*
X155247Y-56147D01*
X156052Y-56391D01*
X157480Y-56531D01*
X158908Y-56391D01*
X160281Y-55974D01*
X161546Y-55298D01*
X162655Y-54388D01*
X163566Y-53279D01*
X164242Y-52013D01*
X164658Y-50640D01*
X164799Y-49213D01*
X164658Y-47785D01*
X164242Y-46412D01*
X163566Y-45147D01*
X162655Y-44038D01*
X161546Y-43127D01*
X160281Y-42451D01*
X158908Y-42035D01*
X157480Y-41894D01*
D02*
G37*
G36*
X68898Y-41894D02*
X67470Y-42035D01*
X66097Y-42451D01*
X64832Y-43127D01*
X63722Y-44038D01*
X62812Y-45147D01*
X62136Y-46412D01*
X61720Y-47785D01*
X61579Y-49213D01*
X61710Y-50546D01*
X61521Y-50778D01*
X61288Y-50940D01*
X60483Y-50696D01*
X59055Y-50555D01*
X57627Y-50696D01*
X56254Y-51112D01*
X54989Y-51789D01*
X53880Y-52699D01*
X52970Y-53808D01*
X52293Y-55073D01*
X51877Y-56446D01*
X51736Y-57874D01*
X51877Y-59302D01*
X52293Y-60675D01*
X52970Y-61940D01*
X53880Y-63049D01*
X54989Y-63959D01*
X56254Y-64636D01*
X57627Y-65052D01*
X59055Y-65193D01*
X60483Y-65052D01*
X61856Y-64636D01*
X63121Y-63959D01*
X64230Y-63049D01*
X65140Y-61940D01*
X65817Y-60675D01*
X66233Y-59302D01*
X66374Y-57874D01*
X66242Y-56541D01*
X66432Y-56308D01*
X66665Y-56147D01*
X67470Y-56391D01*
X68898Y-56531D01*
X70325Y-56391D01*
X71698Y-55974D01*
X72964Y-55298D01*
X74073Y-54388D01*
X74983Y-53279D01*
X75659Y-52013D01*
X76076Y-50640D01*
X76216Y-49213D01*
X76076Y-47785D01*
X75659Y-46412D01*
X74983Y-45147D01*
X74073Y-44038D01*
X72964Y-43127D01*
X71698Y-42451D01*
X70325Y-42035D01*
X68898Y-41894D01*
D02*
G37*
G36*
X399601Y-49713D02*
X394201D01*
Y-55113D01*
X394862Y-55048D01*
X395978Y-54710D01*
X397006Y-54160D01*
X397908Y-53420D01*
X398648Y-52518D01*
X399198Y-51490D01*
X399536Y-50373D01*
X399601Y-49713D01*
D02*
G37*
G36*
X481783D02*
X476383D01*
X476448Y-50373D01*
X476787Y-51490D01*
X477336Y-52518D01*
X478076Y-53420D01*
X478978Y-54160D01*
X480007Y-54710D01*
X481123Y-55048D01*
X481783Y-55113D01*
Y-49713D01*
D02*
G37*
G36*
X311019D02*
X305618D01*
Y-55113D01*
X306279Y-55048D01*
X307395Y-54710D01*
X308424Y-54160D01*
X309325Y-53420D01*
X310065Y-52518D01*
X310615Y-51490D01*
X310954Y-50373D01*
X311019Y-49713D01*
D02*
G37*
G36*
X222436D02*
X217035D01*
Y-55113D01*
X217696Y-55048D01*
X218812Y-54710D01*
X219841Y-54160D01*
X220743Y-53420D01*
X221483Y-52518D01*
X222032Y-51490D01*
X222371Y-50373D01*
X222436Y-49713D01*
D02*
G37*
G36*
X133853D02*
X128453D01*
Y-55113D01*
X129113Y-55048D01*
X130230Y-54710D01*
X131258Y-54160D01*
X132160Y-53420D01*
X132900Y-52518D01*
X133450Y-51490D01*
X133788Y-50373D01*
X133853Y-49713D01*
D02*
G37*
G36*
X304618D02*
X299218D01*
X299283Y-50373D01*
X299621Y-51490D01*
X300171Y-52518D01*
X300911Y-53420D01*
X301813Y-54160D01*
X302841Y-54710D01*
X303957Y-55048D01*
X304618Y-55113D01*
Y-49713D01*
D02*
G37*
G36*
X216035D02*
X210635D01*
X210700Y-50373D01*
X211038Y-51490D01*
X211588Y-52518D01*
X212328Y-53420D01*
X213230Y-54160D01*
X214259Y-54710D01*
X215375Y-55048D01*
X216035Y-55113D01*
Y-49713D01*
D02*
G37*
G36*
X127453D02*
X122052D01*
X122117Y-50373D01*
X122456Y-51490D01*
X123006Y-52518D01*
X123746Y-53420D01*
X124647Y-54160D01*
X125676Y-54710D01*
X126792Y-55048D01*
X127453Y-55113D01*
Y-49713D01*
D02*
G37*
G36*
X488184D02*
X482783D01*
Y-55113D01*
X483444Y-55048D01*
X484560Y-54710D01*
X485589Y-54160D01*
X486491Y-53420D01*
X487231Y-52518D01*
X487781Y-51490D01*
X488119Y-50373D01*
X488184Y-49713D01*
D02*
G37*
G36*
X393201D02*
X387800D01*
X387865Y-50373D01*
X388204Y-51490D01*
X388754Y-52518D01*
X389494Y-53420D01*
X390395Y-54160D01*
X391424Y-54710D01*
X392540Y-55048D01*
X393201Y-55113D01*
Y-49713D01*
D02*
G37*
G36*
X45271Y-49713D02*
X39870D01*
Y-55113D01*
X40531Y-55048D01*
X41647Y-54710D01*
X42676Y-54160D01*
X43577Y-53420D01*
X44317Y-52518D01*
X44867Y-51490D01*
X45206Y-50373D01*
X45271Y-49713D01*
D02*
G37*
G36*
X38870D02*
X33469D01*
X33535Y-50373D01*
X33873Y-51490D01*
X34423Y-52518D01*
X35163Y-53420D01*
X36064Y-54160D01*
X37093Y-54710D01*
X38209Y-55048D01*
X38870Y-55113D01*
Y-49713D01*
D02*
G37*
G36*
X9843Y-41894D02*
X8415Y-42035D01*
X7042Y-42451D01*
X5776Y-43127D01*
X4667Y-44038D01*
X3757Y-45147D01*
X3081Y-46412D01*
X2664Y-47785D01*
X2524Y-49213D01*
X2664Y-50640D01*
X3081Y-52013D01*
X3757Y-53279D01*
X4667Y-54388D01*
X5776Y-55298D01*
X7042Y-55974D01*
X8415Y-56391D01*
X9843Y-56531D01*
X11270Y-56391D01*
X12075Y-56147D01*
X12308Y-56308D01*
X12498Y-56541D01*
X12366Y-57874D01*
X12507Y-59302D01*
X12923Y-60675D01*
X13600Y-61940D01*
X14510Y-63049D01*
X15619Y-63959D01*
X16884Y-64636D01*
X18257Y-65052D01*
X19685Y-65193D01*
X21113Y-65052D01*
X22486Y-64636D01*
X23751Y-63959D01*
X24860Y-63049D01*
X25770Y-61940D01*
X26447Y-60675D01*
X26863Y-59302D01*
X27004Y-57874D01*
X26863Y-56446D01*
X26447Y-55073D01*
X25770Y-53808D01*
X24860Y-52699D01*
X23751Y-51789D01*
X22486Y-51112D01*
X21113Y-50696D01*
X19685Y-50555D01*
X18257Y-50696D01*
X17452Y-50940D01*
X17219Y-50778D01*
X17030Y-50546D01*
X17161Y-49213D01*
X17021Y-47785D01*
X16604Y-46412D01*
X15928Y-45147D01*
X15018Y-44038D01*
X13909Y-43127D01*
X12643Y-42451D01*
X11270Y-42035D01*
X9843Y-41894D01*
D02*
G37*
G36*
X214380Y-77268D02*
X214380Y-77268D01*
X184117D01*
X183109Y-77401D01*
X182169Y-77790D01*
X181363Y-78409D01*
X181363Y-78409D01*
X180379Y-79393D01*
X149405D01*
Y-78367D01*
X133854D01*
Y-88210D01*
X134092D01*
Y-94109D01*
X133642Y-94559D01*
X133375Y-94670D01*
X132359Y-95450D01*
X131580Y-96465D01*
X131090Y-97648D01*
X130923Y-98917D01*
X131090Y-100187D01*
X131580Y-101369D01*
X132359Y-102385D01*
X133375Y-103165D01*
X134557Y-103654D01*
X135697Y-103804D01*
X137009Y-105117D01*
X137009Y-105117D01*
X137816Y-105736D01*
X138756Y-106125D01*
X139764Y-106258D01*
X139764Y-106258D01*
X142126D01*
Y-107283D01*
X150394D01*
Y-106216D01*
X150772Y-105921D01*
X150894Y-105921D01*
X153043D01*
Y-102362D01*
Y-98803D01*
X150894D01*
X150772Y-98803D01*
X150394Y-98509D01*
Y-97441D01*
X142126D01*
Y-98467D01*
X141377D01*
X141023Y-98112D01*
X141362Y-97671D01*
X141751Y-96731D01*
X141884Y-95723D01*
X141884Y-95723D01*
Y-88210D01*
X149405D01*
Y-87184D01*
X181992D01*
X181992Y-87184D01*
X183001Y-87051D01*
X183940Y-86662D01*
X184747Y-86043D01*
X185731Y-85059D01*
X186614D01*
Y-93094D01*
X184236D01*
Y-96350D01*
X187205D01*
Y-96850D01*
X187705D01*
Y-100606D01*
X189900D01*
X190180Y-101103D01*
X190048Y-101378D01*
X183465D01*
Y-101380D01*
X183217Y-101597D01*
X181948Y-101764D01*
X180765Y-102254D01*
X179750Y-103033D01*
X178970Y-104049D01*
X178480Y-105232D01*
X178313Y-106501D01*
X178480Y-107770D01*
X178970Y-108953D01*
X179750Y-109969D01*
X180765Y-110748D01*
X181948Y-111238D01*
X183217Y-111405D01*
X184486Y-111238D01*
X184529Y-111221D01*
X199016D01*
Y-101969D01*
Y-93282D01*
X199636Y-93200D01*
X200819Y-92711D01*
X201835Y-91931D01*
X202614Y-90916D01*
X203104Y-89733D01*
X203271Y-88463D01*
X203104Y-87194D01*
X202614Y-86011D01*
X202228Y-85507D01*
X202449Y-85059D01*
X212766D01*
X217610Y-89903D01*
Y-93497D01*
X217259Y-93956D01*
X216769Y-95138D01*
X216601Y-96408D01*
X216769Y-97677D01*
X217259Y-98860D01*
X218038Y-99875D01*
X219054Y-100655D01*
X220236Y-101145D01*
X221506Y-101312D01*
X222775Y-101145D01*
X223958Y-100655D01*
X224974Y-99875D01*
X225753Y-98860D01*
X226243Y-97677D01*
X226410Y-96408D01*
X226243Y-95138D01*
X225753Y-93956D01*
X225401Y-93497D01*
Y-88289D01*
X225401Y-88289D01*
X225269Y-87281D01*
X224879Y-86342D01*
X224260Y-85535D01*
X224260Y-85535D01*
X217134Y-78409D01*
X216328Y-77790D01*
X215388Y-77401D01*
X214380Y-77268D01*
D02*
G37*
G36*
X73819Y-65470D02*
X72550Y-65637D01*
X71367Y-66127D01*
X70351Y-66906D01*
X69572Y-67922D01*
X69082Y-69105D01*
X68915Y-70374D01*
X69082Y-71643D01*
X69409Y-72433D01*
X69075Y-72933D01*
X68898D01*
Y-81201D01*
X69965D01*
X70260Y-81579D01*
X70260Y-81701D01*
Y-83850D01*
X73819D01*
X77378D01*
Y-81701D01*
X77378Y-81579D01*
X77673Y-81201D01*
X78740D01*
Y-72933D01*
X78563D01*
X78229Y-72433D01*
X78556Y-71643D01*
X78723Y-70374D01*
X78556Y-69105D01*
X78066Y-67922D01*
X77287Y-66906D01*
X76271Y-66127D01*
X75088Y-65637D01*
X73819Y-65470D01*
D02*
G37*
G36*
X77378Y-84850D02*
X74319D01*
Y-87122D01*
X77378D01*
Y-84850D01*
D02*
G37*
G36*
X73319D02*
X70260D01*
Y-87122D01*
X73319D01*
Y-84850D01*
D02*
G37*
G36*
X11122Y-78011D02*
X8563D01*
X7355Y-78170D01*
X6230Y-78636D01*
X5264Y-79378D01*
X4522Y-80344D01*
X4056Y-81470D01*
X3897Y-82677D01*
X4056Y-83885D01*
X4522Y-85010D01*
X5264Y-85976D01*
X6230Y-86718D01*
X7355Y-87184D01*
X8563Y-87343D01*
X11122D01*
X12330Y-87184D01*
X13455Y-86718D01*
X14421Y-85976D01*
X15163Y-85010D01*
X15629Y-83885D01*
X15788Y-82677D01*
X15629Y-81470D01*
X15163Y-80344D01*
X14421Y-79378D01*
X13455Y-78636D01*
X12330Y-78170D01*
X11122Y-78011D01*
D02*
G37*
G36*
X75795Y-88071D02*
Y-91035D01*
X78760D01*
X78705Y-90622D01*
X78352Y-89770D01*
X77792Y-89039D01*
X77060Y-88478D01*
X76209Y-88125D01*
X75795Y-88071D01*
D02*
G37*
G36*
X74795D02*
X74382Y-88125D01*
X73530Y-88478D01*
X72799Y-89039D01*
X72238Y-89770D01*
X71885Y-90622D01*
X71831Y-91035D01*
X74795D01*
Y-88071D01*
D02*
G37*
G36*
X25984Y-78105D02*
X23622D01*
X22286Y-78281D01*
X21041Y-78797D01*
X19972Y-79617D01*
X19151Y-80687D01*
X18636Y-81932D01*
X18460Y-83268D01*
X18634Y-84591D01*
X18487Y-84652D01*
X17664Y-85283D01*
X17033Y-86105D01*
X16637Y-87063D01*
X16501Y-88090D01*
X16637Y-89118D01*
X17033Y-90076D01*
X17664Y-90899D01*
X18487Y-91530D01*
X19445Y-91926D01*
X20472Y-92062D01*
X21500Y-91926D01*
X22458Y-91530D01*
X23280Y-90899D01*
X23911Y-90076D01*
X24308Y-89118D01*
X24399Y-88430D01*
X25984D01*
X27320Y-88254D01*
X28565Y-87738D01*
X29634Y-86918D01*
X30455Y-85849D01*
X30971Y-84604D01*
X31146Y-83268D01*
X30971Y-81932D01*
X30455Y-80687D01*
X29634Y-79617D01*
X28565Y-78797D01*
X27320Y-78281D01*
X25984Y-78105D01*
D02*
G37*
G36*
X78760Y-92035D02*
X75795D01*
Y-95000D01*
X76209Y-94945D01*
X77060Y-94593D01*
X77792Y-94032D01*
X78352Y-93300D01*
X78705Y-92449D01*
X78760Y-92035D01*
D02*
G37*
G36*
X74795D02*
X71831D01*
X71885Y-92449D01*
X72238Y-93300D01*
X72799Y-94032D01*
X73530Y-94593D01*
X74382Y-94945D01*
X74795Y-95000D01*
Y-92035D01*
D02*
G37*
G36*
X186705Y-97350D02*
X184236D01*
Y-100606D01*
X186705D01*
Y-97350D01*
D02*
G37*
G36*
X154043Y-98803D02*
Y-101862D01*
X156315D01*
Y-98803D01*
X154043D01*
D02*
G37*
G36*
X168808Y-102836D02*
Y-105800D01*
X171773D01*
X171718Y-105386D01*
X171366Y-104535D01*
X170805Y-103804D01*
X170074Y-103243D01*
X169222Y-102890D01*
X168808Y-102836D01*
D02*
G37*
G36*
X167808D02*
X167395Y-102890D01*
X166543Y-103243D01*
X165812Y-103804D01*
X165251Y-104535D01*
X164899Y-105386D01*
X164844Y-105800D01*
X167808D01*
Y-102836D01*
D02*
G37*
G36*
X156315Y-102862D02*
X154043D01*
Y-105921D01*
X156315D01*
Y-102862D01*
D02*
G37*
G36*
X53605Y-105474D02*
X53191Y-105529D01*
X52340Y-105881D01*
X51819Y-106280D01*
X51461Y-106395D01*
X51103Y-106280D01*
X50582Y-105881D01*
X49731Y-105529D01*
X49317Y-105474D01*
Y-108939D01*
Y-112403D01*
X49731Y-112348D01*
X50582Y-111996D01*
X51103Y-111597D01*
X51461Y-111482D01*
X51819Y-111597D01*
X52340Y-111996D01*
X53191Y-112348D01*
X53605Y-112403D01*
Y-108939D01*
Y-105474D01*
D02*
G37*
G36*
X48317D02*
X47903Y-105529D01*
X47052Y-105881D01*
X46321Y-106442D01*
X45760Y-107173D01*
X45407Y-108025D01*
X45353Y-108439D01*
X48317D01*
Y-105474D01*
D02*
G37*
G36*
X59830Y-105549D02*
Y-108513D01*
X62794D01*
X62740Y-108100D01*
X62387Y-107248D01*
X61826Y-106517D01*
X61095Y-105956D01*
X60243Y-105604D01*
X59830Y-105549D01*
D02*
G37*
G36*
X171773Y-106800D02*
X168808D01*
Y-109765D01*
X169222Y-109710D01*
X170074Y-109357D01*
X170805Y-108796D01*
X171366Y-108065D01*
X171718Y-107214D01*
X171773Y-106800D01*
D02*
G37*
G36*
X167808D02*
X164844D01*
X164899Y-107214D01*
X165251Y-108065D01*
X165812Y-108796D01*
X166543Y-109357D01*
X167395Y-109710D01*
X167808Y-109765D01*
Y-106800D01*
D02*
G37*
G36*
X295367Y-74427D02*
X292998Y-74582D01*
X290670Y-75045D01*
X288422Y-75808D01*
X286293Y-76858D01*
X284319Y-78177D01*
X282534Y-79743D01*
X280969Y-81528D01*
X279650Y-83501D01*
X278600Y-85631D01*
X277836Y-87879D01*
X277373Y-90207D01*
X277218Y-92576D01*
X277373Y-94945D01*
X277836Y-97273D01*
X278600Y-99521D01*
X279650Y-101651D01*
X280969Y-103624D01*
X282534Y-105409D01*
X284319Y-106975D01*
X286293Y-108294D01*
X288422Y-109344D01*
X290670Y-110107D01*
X292998Y-110570D01*
X295367Y-110725D01*
X297736Y-110570D01*
X300065Y-110107D01*
X302313Y-109344D01*
X304442Y-108294D01*
X306416Y-106975D01*
X308201Y-105409D01*
X309766Y-103624D01*
X311085Y-101651D01*
X312135Y-99521D01*
X312898Y-97273D01*
X313361Y-94945D01*
X313516Y-92576D01*
X313361Y-90207D01*
X312898Y-87879D01*
X312135Y-85631D01*
X311085Y-83501D01*
X309766Y-81528D01*
X308201Y-79743D01*
X306416Y-78177D01*
X304442Y-76858D01*
X302313Y-75808D01*
X300065Y-75045D01*
X297736Y-74582D01*
X295367Y-74427D01*
D02*
G37*
G36*
X48317Y-109439D02*
X45353D01*
X45407Y-109852D01*
X45760Y-110704D01*
X46321Y-111435D01*
X47052Y-111996D01*
X47903Y-112348D01*
X48317Y-112403D01*
Y-109439D01*
D02*
G37*
G36*
X62794Y-109513D02*
X59830D01*
Y-112478D01*
X60243Y-112423D01*
X61095Y-112071D01*
X61826Y-111510D01*
X62387Y-110779D01*
X62740Y-109927D01*
X62794Y-109513D01*
D02*
G37*
G36*
X54605Y-105474D02*
Y-108939D01*
Y-112403D01*
X55018Y-112348D01*
X55870Y-111996D01*
X56314Y-111655D01*
X56833Y-111510D01*
X57565Y-112071D01*
X58416Y-112423D01*
X58830Y-112478D01*
Y-109013D01*
Y-105549D01*
X58416Y-105604D01*
X57565Y-105956D01*
X57120Y-106297D01*
X56601Y-106442D01*
X55870Y-105881D01*
X55018Y-105529D01*
X54605Y-105474D01*
D02*
G37*
G36*
X20472Y-103805D02*
X19445Y-103940D01*
X18487Y-104337D01*
X17664Y-104968D01*
X17033Y-105790D01*
X16637Y-106748D01*
X16501Y-107776D01*
X16637Y-108803D01*
X17033Y-109761D01*
X17664Y-110583D01*
X18487Y-111215D01*
X18634Y-111275D01*
X18460Y-112598D01*
X18636Y-113935D01*
X19151Y-115180D01*
X19972Y-116249D01*
X21041Y-117069D01*
X22286Y-117585D01*
X23622Y-117761D01*
X25984D01*
X27320Y-117585D01*
X28565Y-117069D01*
X29634Y-116249D01*
X30455Y-115180D01*
X30971Y-113935D01*
X31146Y-112598D01*
X30971Y-111262D01*
X30455Y-110017D01*
X29634Y-108948D01*
X28565Y-108128D01*
X27320Y-107612D01*
X25984Y-107436D01*
X24399D01*
X24308Y-106748D01*
X23911Y-105790D01*
X23280Y-104968D01*
X22458Y-104337D01*
X21500Y-103940D01*
X20472Y-103805D01*
D02*
G37*
G36*
X11122Y-108523D02*
X8563D01*
X7355Y-108682D01*
X6230Y-109148D01*
X5264Y-109890D01*
X4522Y-110856D01*
X4056Y-111981D01*
X3897Y-113189D01*
X4056Y-114397D01*
X4522Y-115522D01*
X5264Y-116488D01*
X6230Y-117230D01*
X7355Y-117696D01*
X8563Y-117855D01*
X11122D01*
X12330Y-117696D01*
X13455Y-117230D01*
X14421Y-116488D01*
X15163Y-115522D01*
X15629Y-114397D01*
X15788Y-113189D01*
X15629Y-111981D01*
X15163Y-110856D01*
X14421Y-109890D01*
X13455Y-109148D01*
X12330Y-108682D01*
X11122Y-108523D01*
D02*
G37*
G36*
X95230Y-84902D02*
X92861Y-85057D01*
X90532Y-85520D01*
X88284Y-86283D01*
X86155Y-87333D01*
X84181Y-88652D01*
X82396Y-90218D01*
X80831Y-92002D01*
X79512Y-93976D01*
X78462Y-96106D01*
X77699Y-98354D01*
X77236Y-100682D01*
X77081Y-103051D01*
X77236Y-105420D01*
X77699Y-107748D01*
X78462Y-109996D01*
X79512Y-112126D01*
X80831Y-114100D01*
X82396Y-115884D01*
X84181Y-117450D01*
X86155Y-118769D01*
X88284Y-119819D01*
X90532Y-120582D01*
X92861Y-121045D01*
X95230Y-121200D01*
X97599Y-121045D01*
X99927Y-120582D01*
X102175Y-119819D01*
X104304Y-118769D01*
X106278Y-117450D01*
X108063Y-115884D01*
X109628Y-114100D01*
X110947Y-112126D01*
X111997Y-109996D01*
X112760Y-107748D01*
X113224Y-105420D01*
X113379Y-103051D01*
X113224Y-100682D01*
X112760Y-98354D01*
X111997Y-96106D01*
X110947Y-93976D01*
X109628Y-92002D01*
X108063Y-90218D01*
X106278Y-88652D01*
X104304Y-87333D01*
X102175Y-86283D01*
X99927Y-85520D01*
X97599Y-85057D01*
X95230Y-84902D01*
D02*
G37*
G36*
X499855Y-86602D02*
X497486Y-86757D01*
X495157Y-87220D01*
X492909Y-87983D01*
X490780Y-89033D01*
X488806Y-90352D01*
X487021Y-91918D01*
X485456Y-93703D01*
X484137Y-95676D01*
X483087Y-97806D01*
X482324Y-100054D01*
X481861Y-102382D01*
X481706Y-104751D01*
X481861Y-107120D01*
X482324Y-109448D01*
X483087Y-111696D01*
X484137Y-113826D01*
X485456Y-115799D01*
X487021Y-117584D01*
X488806Y-119150D01*
X490780Y-120469D01*
X492909Y-121519D01*
X495157Y-122282D01*
X497486Y-122745D01*
X499855Y-122900D01*
X502224Y-122745D01*
X504552Y-122282D01*
X506800Y-121519D01*
X508929Y-120469D01*
X510903Y-119150D01*
X512688Y-117584D01*
X514253Y-115799D01*
X515572Y-113826D01*
X516622Y-111696D01*
X517385Y-109448D01*
X517848Y-107120D01*
X518004Y-104751D01*
X517848Y-102382D01*
X517385Y-100054D01*
X516622Y-97806D01*
X515572Y-95676D01*
X514253Y-93703D01*
X512688Y-91918D01*
X510903Y-90352D01*
X508929Y-89033D01*
X506800Y-87983D01*
X504552Y-87220D01*
X502224Y-86757D01*
X499855Y-86602D01*
D02*
G37*
%LPD*%
D17*
X145272Y-83289D02*
D03*
X137988D02*
D03*
X194882Y-106299D02*
D03*
X187598D02*
D03*
X146260Y-102362D02*
D03*
X153543D02*
D03*
D18*
X462598Y-30118D02*
D03*
Y-37402D02*
D03*
X73819Y-77067D02*
D03*
Y-84350D02*
D03*
X196850Y-29823D02*
D03*
Y-37106D02*
D03*
X374016Y-29823D02*
D03*
Y-37106D02*
D03*
X285433Y-29823D02*
D03*
Y-37106D02*
D03*
X108268Y-29823D02*
D03*
Y-37106D02*
D03*
D38*
X162845Y-102362D02*
X166782Y-106300D01*
X168308D01*
X135827Y-98917D02*
Y-97884D01*
Y-98917D02*
X136319D01*
X139764Y-102362D01*
X146260D01*
X101694Y-29843D02*
X108247D01*
X101654Y-29804D02*
X101694Y-29843D01*
X454898Y-29846D02*
X462327D01*
X454811Y-29933D02*
X454898Y-29846D01*
X462327D02*
X462598Y-30118D01*
X373721Y-29528D02*
X374016Y-29823D01*
X366142Y-29528D02*
X373721D01*
X277786Y-29793D02*
X285403D01*
X277729Y-29850D02*
X277786Y-29793D01*
X196685Y-29989D02*
X196850Y-29823D01*
X188945Y-29989D02*
X196685D01*
X73819Y-77067D02*
Y-70374D01*
X73819Y-77067D02*
X73819Y-77067D01*
X75295Y-91535D02*
Y-85497D01*
X74149Y-84350D02*
X75295Y-85497D01*
X221506Y-96408D02*
Y-88289D01*
X214380Y-81164D02*
X221506Y-88289D01*
X54030Y-108939D02*
X54105D01*
X53967Y-108876D02*
X54030Y-108939D01*
X48880Y-108876D02*
X53967D01*
X48817Y-108939D02*
X48880Y-108876D01*
X184117Y-81164D02*
X214380D01*
X181992Y-83289D02*
X184117Y-81164D01*
X145272Y-83289D02*
X181992D01*
X135827Y-97884D02*
X137988Y-95723D01*
Y-83289D01*
X183217Y-106501D02*
X183318Y-106400D01*
X187497D01*
X187598Y-106299D01*
X194685Y-96850D02*
X194783Y-96949D01*
Y-106201D02*
Y-96949D01*
Y-106201D02*
X194882Y-106299D01*
X198230Y-88326D02*
X198367Y-88463D01*
X108268Y-57874D02*
Y-37106D01*
X196850Y-57874D02*
Y-37106D01*
X285433Y-57874D02*
Y-37106D01*
X374016Y-57874D02*
Y-37106D01*
X462598Y-57874D02*
Y-37402D01*
X145272Y-83289D02*
X145390Y-83407D01*
X191082Y-88326D02*
X198230D01*
X190945Y-88189D02*
X191082Y-88326D01*
X285403Y-29793D02*
X285433Y-29823D01*
X108247Y-29843D02*
X108268Y-29823D01*
X153543Y-102362D02*
X162845D01*
X73819Y-84350D02*
X74149D01*
D40*
X499855Y-104751D02*
D03*
X295367Y-92576D02*
D03*
X95230Y-103051D02*
D03*
D41*
X462598Y-9843D02*
D03*
X501968D02*
D03*
X374016D02*
D03*
X413386D02*
D03*
X285433D02*
D03*
X324803D02*
D03*
X196850D02*
D03*
X236221D02*
D03*
X108268D02*
D03*
X147638D02*
D03*
X19685Y-9843D02*
D03*
X59055D02*
D03*
D42*
X452756Y-49213D02*
D03*
X462598Y-57874D02*
D03*
X482283Y-49213D02*
D03*
X501968Y-57874D02*
D03*
X511811Y-49213D02*
D03*
X364173D02*
D03*
X374016Y-57874D02*
D03*
X393701Y-49213D02*
D03*
X413386Y-57874D02*
D03*
X423228Y-49213D02*
D03*
X275590D02*
D03*
X285433Y-57874D02*
D03*
X305118Y-49213D02*
D03*
X324803Y-57874D02*
D03*
X334646Y-49213D02*
D03*
X187008D02*
D03*
X196850Y-57874D02*
D03*
X216535Y-49213D02*
D03*
X236221Y-57874D02*
D03*
X246063Y-49213D02*
D03*
X98425D02*
D03*
X108268Y-57874D02*
D03*
X127953Y-49213D02*
D03*
X147638Y-57874D02*
D03*
X157480Y-49213D02*
D03*
X9843Y-49213D02*
D03*
X19685Y-57874D02*
D03*
X39370Y-49213D02*
D03*
X59055Y-57874D02*
D03*
X68898Y-49213D02*
D03*
D43*
X20472Y-107776D02*
D03*
Y-88090D02*
D03*
D44*
X9843Y-82677D02*
D03*
Y-113189D02*
D03*
D45*
X24803Y-83268D02*
D03*
Y-112598D02*
D03*
D46*
X168308Y-106300D02*
D03*
X135827Y-98917D02*
D03*
X101654Y-29804D02*
D03*
X454811Y-29933D02*
D03*
X366142Y-29528D02*
D03*
X277729Y-29850D02*
D03*
X188945Y-29989D02*
D03*
X73819Y-70374D02*
D03*
X75295Y-91535D02*
D03*
X221506Y-96408D02*
D03*
X59330Y-109013D02*
D03*
X54105Y-108939D02*
D03*
X48817D02*
D03*
X183217Y-106501D02*
D03*
X198367Y-88463D02*
D03*
D47*
X190945Y-88189D02*
D03*
X187205Y-96850D02*
D03*
X194685D02*
D03*
M02*
