G04*
G04 #@! TF.GenerationSoftware,Altium Limited,Altium Designer,19.1.7 (138)*
G04*
G04 Layer_Color=255*
%FSLAX25Y25*%
%MOIN*%
G70*
G01*
G75*
%ADD17R,0.03543X0.05118*%
%ADD18R,0.05118X0.03543*%
%ADD40C,0.31496*%
%ADD41C,0.11811*%
%ADD42C,0.09843*%
%ADD43C,0.03150*%
%ADD44O,0.07087X0.04528*%
%ADD45O,0.07874X0.05512*%
%ADD47R,0.03937X0.05512*%
D17*
X145272Y-83289D02*
D03*
X137988D02*
D03*
X194882Y-106299D02*
D03*
X187598D02*
D03*
X146260Y-102362D02*
D03*
X153543D02*
D03*
D18*
X462598Y-30118D02*
D03*
Y-37402D02*
D03*
X73819Y-77067D02*
D03*
Y-84350D02*
D03*
X196850Y-29823D02*
D03*
Y-37106D02*
D03*
X374016Y-29823D02*
D03*
Y-37106D02*
D03*
X285433Y-29823D02*
D03*
Y-37106D02*
D03*
X108268Y-29823D02*
D03*
Y-37106D02*
D03*
D40*
X499855Y-104751D02*
D03*
X295367Y-92576D02*
D03*
X95230Y-103051D02*
D03*
D41*
X462598Y-9843D02*
D03*
X501968D02*
D03*
X374016D02*
D03*
X413386D02*
D03*
X285433D02*
D03*
X324803D02*
D03*
X196850D02*
D03*
X236221D02*
D03*
X108268D02*
D03*
X147638D02*
D03*
X19685Y-9843D02*
D03*
X59055D02*
D03*
D42*
X452756Y-49213D02*
D03*
X462598Y-57874D02*
D03*
X482283Y-49213D02*
D03*
X501968Y-57874D02*
D03*
X511811Y-49213D02*
D03*
X364173D02*
D03*
X374016Y-57874D02*
D03*
X393701Y-49213D02*
D03*
X413386Y-57874D02*
D03*
X423228Y-49213D02*
D03*
X275590D02*
D03*
X285433Y-57874D02*
D03*
X305118Y-49213D02*
D03*
X324803Y-57874D02*
D03*
X334646Y-49213D02*
D03*
X187008D02*
D03*
X196850Y-57874D02*
D03*
X216535Y-49213D02*
D03*
X236221Y-57874D02*
D03*
X246063Y-49213D02*
D03*
X98425D02*
D03*
X108268Y-57874D02*
D03*
X127953Y-49213D02*
D03*
X147638Y-57874D02*
D03*
X157480Y-49213D02*
D03*
X9843Y-49213D02*
D03*
X19685Y-57874D02*
D03*
X39370Y-49213D02*
D03*
X59055Y-57874D02*
D03*
X68898Y-49213D02*
D03*
D43*
X20472Y-107776D02*
D03*
Y-88090D02*
D03*
D44*
X9843Y-82677D02*
D03*
Y-113189D02*
D03*
D45*
X24803Y-83268D02*
D03*
Y-112598D02*
D03*
D47*
X190945Y-88189D02*
D03*
X187205Y-96850D02*
D03*
X194685D02*
D03*
M02*
