G04*
G04 #@! TF.GenerationSoftware,Altium Limited,Altium Designer,19.1.7 (138)*
G04*
G04 Layer_Color=32896*
%FSLAX25Y25*%
%MOIN*%
G70*
G01*
G75*
%ADD13C,0.01000*%
%ADD15C,0.00787*%
D13*
X131787Y-85257D02*
Y-79259D01*
X128788D01*
X127788Y-80259D01*
Y-82258D01*
X128788Y-83258D01*
X131787D01*
X129788D02*
X127788Y-85257D01*
X122790D02*
Y-79259D01*
X125789Y-82258D01*
X121790D01*
X200787Y-102362D02*
Y-108360D01*
X203786D01*
X204786Y-107361D01*
Y-105361D01*
X203786Y-104362D01*
X200787D01*
X202787D02*
X204786Y-102362D01*
X206785Y-107361D02*
X207785Y-108360D01*
X209785D01*
X210784Y-107361D01*
Y-106361D01*
X209785Y-105361D01*
X208785D01*
X209785D01*
X210784Y-104362D01*
Y-103362D01*
X209785Y-102362D01*
X207785D01*
X206785Y-103362D01*
X187008Y-82770D02*
X191007D01*
X189007D01*
Y-76772D01*
X193006D02*
X195005D01*
X194006D01*
Y-82770D01*
X193006Y-81770D01*
X469968Y-24121D02*
Y-18123D01*
X466969D01*
X465969Y-19123D01*
Y-21122D01*
X466969Y-22122D01*
X469968D01*
X467968D02*
X465969Y-24121D01*
X459971Y-18123D02*
X463970D01*
Y-21122D01*
X461970Y-20123D01*
X460971D01*
X459971Y-21122D01*
Y-23122D01*
X460971Y-24121D01*
X462970D01*
X463970Y-23122D01*
X60101Y-87675D02*
X59101Y-88675D01*
X57102D01*
X56102Y-87675D01*
Y-83677D01*
X57102Y-82677D01*
X59101D01*
X60101Y-83677D01*
X66099Y-82677D02*
X62100D01*
X66099Y-86676D01*
Y-87675D01*
X65099Y-88675D01*
X63100D01*
X62100Y-87675D01*
X150275Y-90728D02*
X151274Y-89728D01*
X153273D01*
X154273Y-90728D01*
Y-94726D01*
X153273Y-95726D01*
X151274D01*
X150275Y-94726D01*
X148275Y-90728D02*
X147275Y-89728D01*
X145276D01*
X144276Y-90728D01*
Y-91727D01*
X145276Y-92727D01*
X146276D01*
X145276D01*
X144276Y-93727D01*
Y-94726D01*
X145276Y-95726D01*
X147275D01*
X148275Y-94726D01*
X207188Y-23857D02*
Y-17859D01*
X204189D01*
X203189Y-18859D01*
Y-20858D01*
X204189Y-21858D01*
X207188D01*
X205189D02*
X203189Y-23857D01*
X201190D02*
X199191D01*
X200190D01*
Y-17859D01*
X201190Y-18859D01*
X196192Y-23857D02*
X194192D01*
X195192D01*
Y-17859D01*
X196192Y-18859D01*
X381368Y-23826D02*
Y-17828D01*
X378369D01*
X377369Y-18828D01*
Y-20827D01*
X378369Y-21827D01*
X381368D01*
X379368D02*
X377369Y-23826D01*
X375370Y-17828D02*
X371371D01*
Y-18828D01*
X375370Y-22826D01*
Y-23826D01*
X292768Y-23868D02*
Y-17870D01*
X289769D01*
X288769Y-18869D01*
Y-20869D01*
X289769Y-21868D01*
X292768D01*
X290768D02*
X288769Y-23868D01*
X286770Y-22868D02*
X285770Y-23868D01*
X283771D01*
X282771Y-22868D01*
Y-18869D01*
X283771Y-17870D01*
X285770D01*
X286770Y-18869D01*
Y-19869D01*
X285770Y-20869D01*
X282771D01*
X120662Y-23821D02*
Y-17822D01*
X117663D01*
X116664Y-18822D01*
Y-20821D01*
X117663Y-21821D01*
X120662D01*
X118663D02*
X116664Y-23821D01*
X114664D02*
X112665D01*
X113664D01*
Y-17822D01*
X114664Y-18822D01*
X109666D02*
X108666Y-17822D01*
X106667D01*
X105667Y-18822D01*
Y-19822D01*
X106667Y-20821D01*
X107666D01*
X106667D01*
X105667Y-21821D01*
Y-22821D01*
X106667Y-23821D01*
X108666D01*
X109666Y-22821D01*
D15*
X141236Y-81123D02*
X142023D01*
X141236Y-85454D02*
X142023D01*
X190847Y-104134D02*
X191634D01*
X190847Y-108465D02*
X191634D01*
X460433Y-34154D02*
Y-33366D01*
X464764Y-34154D02*
Y-33366D01*
X71653Y-81102D02*
Y-80315D01*
X75984Y-81102D02*
Y-80315D01*
X149508Y-104528D02*
X150295D01*
X149508Y-100197D02*
X150295D01*
X194685Y-33858D02*
Y-33071D01*
X199016Y-33858D02*
Y-33071D01*
X371850Y-33858D02*
Y-33071D01*
X376181Y-33858D02*
Y-33071D01*
X283268Y-33858D02*
Y-33071D01*
X287598Y-33858D02*
Y-33071D01*
X106102Y-33858D02*
Y-33071D01*
X110433Y-33858D02*
Y-33071D01*
M02*
