G04*
G04 #@! TF.GenerationSoftware,Altium Limited,Altium Designer,19.1.7 (138)*
G04*
G04 Layer_Color=32768*
%FSLAX25Y25*%
%MOIN*%
G70*
G01*
G75*
%ADD10C,0.00394*%
%ADD51C,0.00197*%
D10*
X139661Y-83289D02*
X143598D01*
X141630Y-85257D02*
Y-81320D01*
X23622Y-72835D02*
X27559D01*
X25591Y-74803D02*
Y-70866D01*
X189272Y-106299D02*
X193209D01*
X191240Y-108268D02*
Y-104331D01*
X82677Y-80709D02*
Y-76772D01*
X80709Y-78740D02*
X84646D01*
X462598Y-35728D02*
Y-31791D01*
X460630Y-33760D02*
X464567D01*
X39370Y-82677D02*
Y-78740D01*
X37402Y-80709D02*
X41339D01*
X73819Y-82677D02*
Y-78740D01*
X71850Y-80709D02*
X75787D01*
X147933Y-102362D02*
X151870D01*
X149902Y-104331D02*
Y-100394D01*
X496063Y-72835D02*
X500000D01*
X498032Y-74803D02*
Y-70866D01*
X196850Y-35433D02*
Y-31496D01*
X194882Y-33465D02*
X198819D01*
X230315Y-72835D02*
X234252D01*
X232283Y-74803D02*
Y-70866D01*
X37402Y-102362D02*
X41339D01*
X39370Y-104331D02*
Y-100394D01*
X374016Y-35433D02*
Y-31496D01*
X372047Y-33465D02*
X375984D01*
X319193Y-72835D02*
X323130D01*
X321161Y-74803D02*
Y-70866D01*
X407776Y-72835D02*
X411713D01*
X409744Y-74803D02*
Y-70866D01*
X285433Y-35433D02*
Y-31496D01*
X283465Y-33465D02*
X287402D01*
X108268Y-35433D02*
Y-31496D01*
X106299Y-33465D02*
X110236D01*
X61024Y-82677D02*
Y-78740D01*
X59055Y-80709D02*
X62992D01*
X151575Y-104331D02*
Y-100394D01*
X149606Y-102362D02*
X153543D01*
X141732Y-72835D02*
X145669D01*
X143701Y-74803D02*
Y-70866D01*
D51*
X148126Y-86832D02*
Y-79745D01*
X135134Y-86832D02*
Y-79745D01*
X148126D01*
X135134Y-86832D02*
X148126D01*
X19094Y-76378D02*
Y-69291D01*
X32087Y-76378D02*
Y-69291D01*
X19094D02*
X32087D01*
X19094Y-76378D02*
X32087D01*
X197736Y-109843D02*
Y-102756D01*
X184744Y-109843D02*
Y-102756D01*
X197736D01*
X184744Y-109843D02*
X197736D01*
X79134Y-85236D02*
X86221D01*
X79134Y-72244D02*
X86221D01*
X79134Y-85236D02*
Y-72244D01*
X86221Y-85236D02*
Y-72244D01*
X459055Y-27264D02*
X466142D01*
X459055Y-40256D02*
X466142D01*
X459055D02*
Y-27264D01*
X466142Y-40256D02*
Y-27264D01*
X35827Y-87205D02*
X42913D01*
X35827Y-74213D02*
X42913D01*
X35827Y-87205D02*
Y-74213D01*
X42913Y-87205D02*
Y-74213D01*
X70276Y-74213D02*
X77362D01*
X70276Y-87205D02*
X77362D01*
X70276D02*
Y-74213D01*
X77362Y-87205D02*
Y-74213D01*
X143405Y-105905D02*
Y-98819D01*
X156398Y-105905D02*
Y-98819D01*
X143405Y-105905D02*
X156398D01*
X143405Y-98819D02*
X156398D01*
X491535Y-76378D02*
Y-69291D01*
X504528Y-76378D02*
Y-69291D01*
X491535D02*
X504528D01*
X491535Y-76378D02*
X504528D01*
X193307Y-26969D02*
X200394D01*
X193307Y-39961D02*
X200394D01*
X193307D02*
Y-26969D01*
X200394Y-39961D02*
Y-26969D01*
X225787Y-76378D02*
Y-69291D01*
X238779Y-76378D02*
Y-69291D01*
X225787D02*
X238779D01*
X225787Y-76378D02*
X238779D01*
X31693Y-112795D02*
Y-91929D01*
X47047Y-112795D02*
Y-91929D01*
X31693Y-112795D02*
X47047D01*
X31693Y-91929D02*
X47047D01*
X370472Y-26969D02*
X377559D01*
X370472Y-39961D02*
X377559D01*
X370472D02*
Y-26969D01*
X377559Y-39961D02*
Y-26969D01*
X314665Y-76378D02*
Y-69291D01*
X327658Y-76378D02*
Y-69291D01*
X314665D02*
X327658D01*
X314665Y-76378D02*
X327658D01*
X403248D02*
Y-69291D01*
X416240Y-76378D02*
Y-69291D01*
X403248D02*
X416240D01*
X403248Y-76378D02*
X416240D01*
X281890Y-26969D02*
X288976D01*
X281890Y-39961D02*
X288976D01*
X281890D02*
Y-26969D01*
X288976Y-39961D02*
Y-26969D01*
X104724D02*
X111811D01*
X104724Y-39961D02*
X111811D01*
X104724D02*
Y-26969D01*
X111811Y-39961D02*
Y-26969D01*
X44094Y-89567D02*
X77953D01*
X44094Y-71850D02*
X77953D01*
Y-89567D02*
Y-71850D01*
X44094Y-89567D02*
Y-71850D01*
X133268Y-116929D02*
X169882D01*
X133268Y-87795D02*
X169882D01*
X133268Y-116929D02*
Y-87795D01*
X169882Y-116929D02*
Y-87795D01*
X137205Y-76378D02*
Y-69291D01*
X150197Y-76378D02*
Y-69291D01*
X137205D02*
X150197D01*
X137205Y-76378D02*
X150197D01*
M02*
