M48
;Layer_Color=9474304
;FILE_FORMAT=2:5
INCH,LZ
;TYPE=PLATED
T2F00S00C0.02800
T4F00S00C0.06102
T5F00S00C0.12598
;TYPE=NON_PLATED
T6F00S00C0.03150
%
T02
X0048817Y-0108939
X0054105
X005933Y-0109013
X0075295Y-0091535
X0073819Y-0070374
X0101654Y-0029804
X0135827Y-0098917
X0168308Y-01063
X0183217Y-0106501
X0198367Y-0088463
X0221506Y-0096408
X0188945Y-0029989
X0277729Y-002985
X0366142Y-0029528
X0454811Y-0029933
T04
X0009843Y-0049213
X0019685Y-0057874
X003937Y-0049213
X0059055Y-0057874
X0068898Y-0049213
X0098425Y-0049213
X0108268Y-0057874
X0127953Y-0049213
X0147638Y-0057874
X015748Y-0049213
X0187008
X019685Y-0057874
X0216535Y-0049213
X0236221Y-0057874
X0246063Y-0049213
X027559
X0285433Y-0057874
X0305118Y-0049213
X0324803Y-0057874
X0334646Y-0049213
X0364173
X0374016Y-0057874
X0393701Y-0049213
X0413386Y-0057874
X0423228Y-0049213
X0452756
X0462598Y-0057874
X0482283Y-0049213
X0501968Y-0057874
X0511811Y-0049213
X0501968Y-0009843
X0462598
X0413386
X0374016
X0324803
X0285433
X0236221
X019685
X0147638
X0108268
X0059055Y-0009843
X0019685
T05
X009523Y-0103051
X0295367Y-0092576
X0499855Y-0104751
T06
X0020472Y-0107776
Y-008809
M30
